{
    "asset" : {
        "generator" : "Khronos glTF Blender I/O v1.3.48",
        "version" : "2.0"
    },
    "scene" : 0,
    "scenes" : [
        {
            "name" : "Scene",
            "nodes" : [
                27
            ]
        }
    ],
    "nodes" : [
        {
            "name" : "Bone.002",
            "rotation" : [
                -0.13645046949386597,
                0.0716748833656311,
                0.028193630278110504,
                0.9876483678817749
            ],
            "scale" : [
                1.000000238418579,
                1.0000004768371582,
                1.000000238418579
            ],
            "translation" : [
                -6.537991481536665e-08,
                0.10107292979955673,
                3.706847273576841e-09
            ]
        },
        {
            "children" : [
                0
            ],
            "name" : "Bone.001",
            "rotation" : [
                -0.021948033943772316,
                0.009668344631791115,
                0.023876573890447617,
                0.9994271993637085
            ],
            "scale" : [
                1.0000003576278687,
                1.0000008344650269,
                1.0000008344650269
            ],
            "translation" : [
                8.849754706830026e-09,
                0.12631621956825256,
                6.145135955648584e-08
            ]
        },
        {
            "children" : [
                1
            ],
            "name" : "Bone",
            "rotation" : [
                -0.002378616249188781,
                0.048874225467443466,
                -0.030071616172790527,
                0.9983493089675903
            ],
            "scale" : [
                1.0000009536743164,
                0.9999996423721313,
                1.0000004768371582
            ],
            "translation" : [
                -2.5277371307197427e-08,
                0.12841027975082397,
                -1.1005059974422693e-08
            ]
        },
        {
            "children" : [
                2
            ],
            "name" : "Bone.012",
            "rotation" : [
                -0.10345660895109177,
                -0.15842115879058838,
                0.04458146542310715,
                0.980924129486084
            ],
            "translation" : [
                -0.05844051390886307,
                0.21196585893630981,
                -0.007038393057882786
            ]
        },
        {
            "name" : "Bone.008",
            "rotation" : [
                -0.547779381275177,
                -0.1219179779291153,
                -0.013459471985697746,
                0.8275825381278992
            ],
            "scale" : [
                1.0000008344650269,
                1.0000009536743164,
                1.0000004768371582
            ],
            "translation" : [
                -4.958025812129563e-08,
                0.10466836392879486,
                -7.076444985543162e-11
            ]
        },
        {
            "children" : [
                4
            ],
            "name" : "Bone.007",
            "rotation" : [
                -0.5782974362373352,
                -0.026161378249526024,
                -0.17179493606090546,
                0.7971036434173584
            ],
            "scale" : [
                1.0000004768371582,
                1.0000005960464478,
                1.0000004768371582
            ],
            "translation" : [
                -5.962639448853224e-08,
                0.1308927834033966,
                -8.544174812108452e-10
            ]
        },
        {
            "children" : [
                5
            ],
            "name" : "Bone.006",
            "rotation" : [
                -0.65998774766922,
                0.05508768558502197,
                0.04986131563782692,
                0.747593104839325
            ],
            "scale" : [
                1,
                1.0000007152557373,
                1.0000004768371582
            ],
            "translation" : [
                -1.0403196881725307e-07,
                0.1294274777173996,
                -3.6953684556806365e-09
            ]
        },
        {
            "children" : [
                6
            ],
            "name" : "Bone.014",
            "rotation" : [
                -0.07804727554321289,
                0.038737889379262924,
                -0.12901513278484344,
                0.9878073334693909
            ],
            "scale" : [
                1,
                0.9999999403953552,
                1.0000001192092896
            ],
            "translation" : [
                0.06438428908586502,
                0.19741502404212952,
                -0.008896851912140846
            ]
        },
        {
            "name" : "Bone.011",
            "rotation" : [
                -0.5036605596542358,
                -0.04782863333821297,
                -0.14828014373779297,
                0.8497360944747925
            ],
            "scale" : [
                1,
                1.0000004768371582,
                1.000000238418579
            ],
            "translation" : [
                1.3245880836620927e-08,
                0.07329690456390381,
                8.767528925091028e-09
            ]
        },
        {
            "children" : [
                8
            ],
            "name" : "Bone.010",
            "rotation" : [
                -0.7098526358604431,
                0.04860328510403633,
                -0.17813487350940704,
                0.6797168850898743
            ],
            "scale" : [
                1.0000005960464478,
                1.0000004768371582,
                1.0000001192092896
            ],
            "translation" : [
                2.6542693376541138e-08,
                0.1261557787656784,
                -3.725290298461914e-09
            ]
        },
        {
            "children" : [
                9
            ],
            "name" : "Bone.009",
            "rotation" : [
                -0.5890752673149109,
                0.023681765422225,
                0.08727281540632248,
                0.8030024766921997
            ],
            "scale" : [
                1.000000238418579,
                1.000000238418579,
                1.0000005960464478
            ],
            "translation" : [
                6.268862051683755e-08,
                0.11730250716209412,
                -1.0925212123868988e-10
            ]
        },
        {
            "children" : [
                10
            ],
            "name" : "Bone.015",
            "rotation" : [
                -0.0982254222035408,
                0.07756195217370987,
                -0.22666367888450623,
                0.9658982753753662
            ],
            "translation" : [
                0.11856155842542648,
                0.17135968804359436,
                -0.010785008780658245
            ]
        },
        {
            "name" : "Bone.005",
            "rotation" : [
                -0.1810123175382614,
                -0.3066050410270691,
                -0.08137523382902145,
                0.9309167265892029
            ],
            "scale" : [
                1,
                1.0000005960464478,
                1.0000004768371582
            ],
            "translation" : [
                -2.6098156524767546e-08,
                0.11210925877094269,
                4.577645285053222e-08
            ]
        },
        {
            "children" : [
                12
            ],
            "name" : "Bone.004",
            "rotation" : [
                -0.6954718828201294,
                0.28922635316848755,
                -0.23972834646701813,
                0.6125335097312927
            ],
            "scale" : [
                1.0000003576278687,
                1.000000238418579,
                1.0000004768371582
            ],
            "translation" : [
                7.927879863700582e-08,
                0.1504238396883011,
                3.733409137396393e-09
            ]
        },
        {
            "children" : [
                13
            ],
            "name" : "Bone.003",
            "rotation" : [
                -0.4957285225391388,
                -0.04442216828465462,
                0.1668577790260315,
                0.851139485836029
            ],
            "scale" : [
                1.0000004768371582,
                1.0000003576278687,
                0.9999997615814209
            ],
            "translation" : [
                -2.368351559312032e-08,
                0.13761809468269348,
                -6.0333551488156445e-09
            ]
        },
        {
            "children" : [
                14
            ],
            "name" : "Bone.013",
            "rotation" : [
                -0.0551852285861969,
                -0.011126703582704067,
                -0.06481576710939407,
                0.9963081479072571
            ],
            "scale" : [
                1.0000001192092896,
                1.000000238418579,
                1.000000238418579
            ],
            "translation" : [
                8.70091376725668e-09,
                0.2100001871585846,
                -4.179145474125789e-09
            ]
        },
        {
            "name" : "index control",
            "rotation" : [
                -0.2039090096950531,
                -0.12826697528362274,
                0.05744481086730957,
                0.968849241733551
            ],
            "scale" : [
                1.0000001192092896,
                1.0000001192092896,
                0.9999999403953552
            ],
            "translation" : [
                -0.044265978038311005,
                0.3677045404911041,
                0.16478504240512848
            ]
        },
        {
            "name" : "Major control",
            "rotation" : [
                -0.20390896499156952,
                -0.1282671093940735,
                0.057444725185632706,
                0.968849241733551
            ],
            "scale" : [
                1.000000238418579,
                1,
                1.0000001192092896
            ],
            "translation" : [
                0.01577797718346119,
                0.3738486170768738,
                0.16503724455833435
            ]
        },
        {
            "name" : "Ring control",
            "rotation" : [
                -0.21052929759025574,
                0.03070111572742462,
                0.02358352765440941,
                0.976820707321167
            ],
            "scale" : [
                1.0000001192092896,
                1,
                1.0000001192092896
            ],
            "translation" : [
                0.08347057551145554,
                0.3646969199180603,
                0.1754683256149292
            ]
        },
        {
            "name" : "Pinky control",
            "rotation" : [
                -0.1993395984172821,
                0.11902173608541489,
                -0.06331383436918259,
                0.970612645149231
            ],
            "scale" : [
                1.0000001192092896,
                1,
                1.0000001192092896
            ],
            "translation" : [
                0.14517734944820404,
                0.3478635549545288,
                0.19033513963222504
            ]
        },
        {
            "name" : "Bone.019",
            "rotation" : [
                -0.19117142260074615,
                -0.05372769385576248,
                0.0020815383177250624,
                0.9800829291343689
            ],
            "scale" : [
                1.0000001192092896,
                0.9999997019767761,
                0.9999998807907104
            ],
            "translation" : [
                4.274680520666152e-08,
                0.1438348889350891,
                3.859946318129914e-08
            ]
        },
        {
            "children" : [
                20
            ],
            "name" : "Bone.018",
            "rotation" : [
                -0.34459927678108215,
                -0.1098504513502121,
                -0.060123153030872345,
                0.9303598403930664
            ],
            "scale" : [
                1.0971312522888184,
                1.0971310138702393,
                1.0971310138702393
            ],
            "translation" : [
                -5.724931995132465e-08,
                0.09227602183818817,
                3.1214486995168045e-08
            ]
        },
        {
            "children" : [
                21
            ],
            "name" : "Bone.017",
            "rotation" : [
                -0.06662073731422424,
                -0.19415025413036346,
                -0.21533341705799103,
                0.9547245502471924
            ],
            "scale" : [
                1.0000001192092896,
                1.0000001192092896,
                1
            ],
            "translation" : [
                -2.201917403965581e-08,
                0.10424935817718506,
                -1.2659580050922159e-08
            ]
        },
        {
            "children" : [
                22
            ],
            "name" : "Bone.021",
            "rotation" : [
                -0.13398288190364838,
                -0.28436070680618286,
                0.5033102631568909,
                0.8049014806747437
            ],
            "scale" : [
                0.9999998211860657,
                1,
                1
            ],
            "translation" : [
                -0.032993171364068985,
                0.0530807226896286,
                -0.03377150744199753
            ]
        },
        {
            "children" : [
                3,
                7,
                11,
                15,
                16,
                17,
                18,
                19,
                23
            ],
            "name" : "Bone.016",
            "rotation" : [
                0.08762979507446289,
                0.009998062625527382,
                -0.08246226608753204,
                0.9926837682723999
            ],
            "scale" : [
                1.0000001192092896,
                0.9999999403953552,
                1
            ],
            "translation" : [
                4.887131410669099e-08,
                0.4784680902957916,
                1.4979778528712018e-10
            ]
        },
        {
            "children" : [
                24
            ],
            "name" : "Bone.020",
            "rotation" : [
                0.6904444694519043,
                0.08491192758083344,
                0.5563809275627136,
                0.45444104075431824
            ],
            "scale" : [
                1.000007152557373,
                1.000005841255188,
                1.0000016689300537
            ],
            "translation" : [
                -3.139721229672432e-07,
                2.1391315385699272e-07,
                -9.220093488693237e-08
            ]
        },
        {
            "mesh" : 0,
            "name" : "Hand.R",
            "skin" : 0
        },
        {
            "children" : [
                26,
                25
            ],
            "name" : "Hand_Right",
            "rotation" : [
                -0.17813187837600708,
                -0.06744939833879471,
                0.9639409780502319,
                0.18584229052066803
            ],
            "translation" : [
                -0.7665857076644897,
                -0.014649659395217896,
                -0.6266626119613647
            ]
        }
    ],
    "materials" : [
        {
            "doubleSided" : true,
            "name" : "Material.003",
            "pbrMetallicRoughness" : {}
        }
    ],
    "meshes" : [
        {
            "name" : "Hand.R",
            "primitives" : [
                {
                    "attributes" : {
                        "POSITION" : 0,
                        "NORMAL" : 1,
                        "JOINTS_0" : 2,
                        "WEIGHTS_0" : 3
                    },
                    "indices" : 4,
                    "material" : 0
                }
            ]
        }
    ],
    "skins" : [
        {
            "inverseBindMatrices" : 5,
            "joints" : [
                25,
                24,
                3,
                2,
                1,
                0,
                7,
                6,
                5,
                4,
                11,
                10,
                9,
                8,
                15,
                14,
                13,
                12,
                16,
                17,
                18,
                19,
                23,
                22,
                21,
                20
            ],
            "name" : "Hand_Right"
        }
    ],
    "accessors" : [
        {
            "bufferView" : 0,
            "componentType" : 5126,
            "count" : 1102,
            "max" : [
                -0.9733499884605408,
                0.3581187427043915,
                0.28972798585891724
            ],
            "min" : [
                -1.6431655883789062,
                -0.04789064824581146,
                -0.8395500183105469
            ],
            "type" : "VEC3"
        },
        {
            "bufferView" : 1,
            "componentType" : 5126,
            "count" : 1102,
            "type" : "VEC3"
        },
        {
            "bufferView" : 2,
            "componentType" : 5123,
            "count" : 1102,
            "type" : "VEC4"
        },
        {
            "bufferView" : 3,
            "componentType" : 5126,
            "count" : 1102,
            "type" : "VEC4"
        },
        {
            "bufferView" : 4,
            "componentType" : 5123,
            "count" : 6534,
            "type" : "SCALAR"
        },
        {
            "bufferView" : 5,
            "componentType" : 5126,
            "count" : 26,
            "type" : "MAT4"
        }
    ],
    "bufferViews" : [
        {
            "buffer" : 0,
            "byteLength" : 13224,
            "byteOffset" : 0
        },
        {
            "buffer" : 0,
            "byteLength" : 13224,
            "byteOffset" : 13224
        },
        {
            "buffer" : 0,
            "byteLength" : 8816,
            "byteOffset" : 26448
        },
        {
            "buffer" : 0,
            "byteLength" : 17632,
            "byteOffset" : 35264
        },
        {
            "buffer" : 0,
            "byteLength" : 13068,
            "byteOffset" : 52896
        },
        {
            "buffer" : 0,
            "byteLength" : 1664,
            "byteOffset" : 65964
        }
    ],
    "buffers" : [
        {
            "byteLength" : 67628,
            "uri" : "data:application/octet-stream;base64,"
        }
    ]
}
